<?xml version="1.0" standalone="no"?>
<!DOCTYPE svg PUBLIC "-//W3C//DTD SVG 20010904//EN"
 "http://www.w3.org/TR/2001/REC-SVG-20010904/DTD/svg10.dtd">
<svg version="1.0" xmlns="http://www.w3.org/2000/svg"
 width="300.000000pt" height="300.000000pt" viewBox="0 0 300.000000 300.000000"
 preserveAspectRatio="xMidYMid meet">

<g transform="translate(0.000000,300.000000) scale(0.100000,-0.100000)"
fill="#000000" stroke="none">
<path d="M1418 2789 c-40 -15 -42 -36 -7 -68 27 -25 29 -31 18 -49 -11 -18
-10 -24 6 -41 14 -17 16 -26 8 -44 -9 -19 -8 -26 6 -34 13 -9 14 -13 4 -24 -7
-7 -13 -21 -13 -31 0 -15 -9 -18 -50 -18 -27 0 -72 -5 -100 -11 -44 -9 -50
-14 -50 -36 0 -35 103 -123 145 -123 17 0 43 -57 57 -124 10 -48 9 -56 -10
-88 -28 -45 -28 -88 -1 -122 28 -36 19 -42 -28 -18 -21 10 -51 22 -67 26 -15
4 -39 19 -52 35 -31 37 -134 86 -211 101 -90 18 -228 9 -280 -18 -55 -28 -83
-66 -83 -110 0 -54 77 -123 216 -195 l111 -56 6 -68 5 -68 -88 -91 c-100 -105
-197 -245 -230 -331 -31 -80 -38 -199 -16 -257 38 -100 121 -175 240 -216 31
-11 114 -29 183 -40 69 -11 126 -20 127 -22 1 -2 7 -16 14 -31 12 -27 11 -28
-35 -48 -60 -25 -215 -66 -285 -75 -47 -5 -153 -32 -321 -81 -31 -9 -57 -20
-57 -25 0 -18 29 -19 111 -4 46 8 120 20 164 27 44 6 87 17 95 24 8 6 42 17
75 24 79 16 223 60 258 77 25 13 30 13 57 -8 21 -15 26 -24 18 -29 -15 -8
-140 -39 -183 -46 -86 -14 -140 -31 -140 -44 0 -15 13 -16 118 -5 37 3 67 4
67 1 0 -3 -9 -14 -20 -25 -22 -22 -26 -70 -9 -102 15 -28 119 -73 212 -92 188
-39 377 -4 465 87 67 69 48 137 -52 183 -46 22 -46 29 -1 27 29 -2 214 -47
240 -58 17 -8 46 -17 65 -20 19 -3 42 -8 50 -10 8 -2 31 -6 50 -9 19 -3 67
-12 107 -20 40 -7 75 -11 78 -8 17 17 -4 32 -72 51 -43 12 -119 34 -170 50
-51 16 -94 27 -97 24 -5 -5 -125 17 -144 27 -10 5 -6 11 13 24 30 20 64 87 65
127 0 23 8 29 58 48 197 73 275 244 206 449 -38 113 -118 225 -278 391 -78 79
-135 141 -127 136 9 -5 18 -2 25 7 6 8 59 38 118 66 191 90 288 171 288 240 0
28 -47 82 -85 97 -129 54 -407 3 -502 -91 -78 -79 -75 -157 9 -249 l49 -54
-40 -21 c-22 -11 -47 -20 -55 -20 -9 0 -37 -21 -63 -46 -36 -34 -49 -42 -51
-29 -2 9 2 22 8 30 10 12 10 21 0 44 -10 24 -9 33 5 55 25 38 23 91 -4 120
-17 19 -22 32 -17 51 4 14 2 34 -4 44 -7 14 -5 25 10 43 32 41 34 70 7 121
-21 40 -24 52 -16 93 12 65 40 118 64 122 11 2 25 9 30 16 6 7 19 16 31 20 30
9 73 58 76 86 3 22 -3 26 -42 37 -25 6 -71 12 -103 12 -41 1 -57 5 -55 14 1 6
-3 22 -10 34 -10 18 -9 23 4 31 13 7 14 13 6 28 -8 15 -6 25 8 44 14 18 15 28
7 42 -9 14 -6 23 18 48 33 35 28 59 -16 71 -35 10 -110 9 -141 -2z m95 -96
c-7 -2 -21 -2 -30 0 -10 3 -4 5 12 5 17 0 24 -2 18 -5z m-10 -90 c-7 -2 -19
-2 -25 0 -7 3 -2 5 12 5 14 0 19 -2 13 -5z m-463 -523 c98 -15 260 -100 192
-100 -49 0 -145 -87 -175 -158 l-14 -33 -89 45 c-104 52 -166 95 -190 131 -15
22 -15 29 -3 51 31 58 146 85 279 64z m1148 -30 c75 -34 70 -80 -18 -144 -62
-46 -243 -139 -295 -152 -17 -4 -39 -13 -51 -21 -19 -12 -24 -10 -63 32 -52
56 -76 105 -67 138 9 39 54 85 106 112 105 53 307 72 388 35z m-685 -107 c-7
-2 -19 -2 -25 0 -7 3 -2 5 12 5 14 0 19 -2 13 -5z m-219 -29 c8 -31 -20 -92
-69 -149 -32 -38 -34 -39 -53 -22 -10 9 -28 17 -40 17 -11 0 -23 4 -26 9 -18
28 61 131 119 157 45 20 62 17 69 -12z m134 -20 l33 -25 -26 -30 c-29 -35 -32
-76 -10 -120 11 -20 14 -41 9 -64 -4 -22 -2 -41 6 -50 6 -8 9 -19 5 -25 -5 -8
-18 -2 -39 18 -17 17 -60 47 -96 68 -36 20 -67 38 -69 40 -2 2 12 22 32 46 49
60 67 101 67 147 0 40 0 40 27 30 16 -6 43 -22 61 -35z m95 -51 c-7 -2 -21 -2
-30 0 -10 3 -4 5 12 5 17 0 24 -2 18 -5z m-413 -133 c0 -5 9 -10 20 -10 25 0
25 -12 0 -35 -24 -21 -28 -19 -36 23 -4 21 -3 32 5 32 6 0 11 -4 11 -10z m403
-7 c-7 -2 -19 -2 -25 0 -7 3 -2 5 12 5 14 0 19 -2 13 -5z m4 -29 c-3 -3 -12
-4 -19 -1 -8 3 -5 6 6 6 11 1 17 -2 13 -5z m-248 -39 c37 -19 83 -49 103 -65
30 -25 36 -37 41 -82 3 -36 0 -62 -10 -82 -9 -17 -12 -39 -8 -55 10 -41 11
-91 3 -91 -15 0 -150 123 -190 173 -22 29 -52 76 -66 104 l-26 53 39 40 c21
22 41 40 43 40 2 0 34 -16 71 -35z m782 -211 c125 -144 180 -242 198 -349 9
-62 1 -137 -20 -176 -22 -43 -84 -101 -131 -125 -97 -49 -93 -49 -122 10 -35
72 -154 183 -289 271 l-108 70 6 35 c3 19 10 79 15 133 10 86 9 101 -6 127
-14 23 -15 31 -5 44 8 9 10 27 6 45 -5 25 -1 33 28 55 19 14 41 26 50 26 9 0
20 6 24 14 4 7 30 25 58 38 l49 25 88 -81 c49 -44 120 -117 159 -162z m-538
139 c-7 -2 -19 -2 -25 0 -7 3 -2 5 12 5 14 0 19 -2 13 -5z m-398 -77 c41 -71
122 -157 231 -248 68 -56 72 -61 78 -111 8 -74 7 -132 -3 -160 -5 -13 -39 -56
-76 -96 -68 -74 -85 -104 -85 -147 0 -24 -2 -25 -47 -19 -213 29 -318 70 -389
148 -121 135 -87 307 109 552 50 61 129 145 138 145 3 0 23 -29 44 -64z m418
-53 c-13 -2 -35 -2 -50 0 -16 2 -5 4 22 4 28 0 40 -2 28 -4z m24 -95 c-16 -10
-104 -10 -110 0 -3 4 23 7 58 7 35 0 58 -3 52 -7z m192 -381 c107 -79 177
-155 195 -213 7 -23 9 -23 -161 -49 l-43 -7 0 37 c0 41 -18 81 -50 110 -57 52
-103 118 -111 161 -14 73 -5 78 59 37 31 -20 81 -54 111 -76z m194 -356 c-11
-14 -40 -36 -65 -49 l-45 -23 -57 25 c-40 18 -56 30 -56 44 0 33 28 45 133 62
l102 15 3 -24 c2 -13 -5 -36 -15 -50z m-238 -61 c18 -20 18 -21 -13 -18 -35 2
-38 8 -20 26 15 15 12 16 33 -8z m105 -128 c61 -31 73 -56 45 -98 -25 -38
-131 -84 -214 -93 -186 -19 -443 53 -405 116 16 27 98 68 162 83 166 37 326
34 412 -8z"/>
</g>
</svg>
